<?xml version="1.0" encoding="iso-8859-1"?>
<!-- Generator: Adobe Illustrator 18.1.1, SVG Export Plug-In . SVG Version: 6.00 Build 0)  -->
<svg version="1.1" id="Capa_1" xmlns="http://www.w3.org/2000/svg" xmlns:xlink="http://www.w3.org/1999/xlink" x="0px" y="0px"
	 viewBox="0 0 448 448" style="enable-background:new 0 0 448 448;" xml:space="preserve">
<path d="M355.667,228.25c0,4.418-3.582,8-8,8H93.5c-4.419,0-8-3.582-8-8s3.581-8,8-8h254.167
	C352.085,220.25,355.667,223.831,355.667,228.25z M95.721,284.154c-4.419,0-8,3.582-8,8c0,4.241-3.448,7.691-7.687,7.691
	c-4.241,0-7.691-3.45-7.691-7.691c0-4.239,3.45-7.688,7.691-7.688c4.418,0,8-3.582,8-8c0-4.418-3.582-8-8-8
	c-13.063,0-23.691,10.626-23.691,23.688c0,13.063,10.628,23.691,23.691,23.691c13.061,0,23.687-10.628,23.687-23.691
	C103.721,287.736,100.14,284.154,95.721,284.154z M384.091,284.154c-4.418,0-8,3.582-8,8c0,4.241-3.448,7.691-7.687,7.691
	c-4.241,0-7.691-3.45-7.691-7.691c0-4.239,3.45-7.688,7.691-7.688c4.418,0,8-3.582,8-8c0-4.418-3.582-8-8-8
	c-13.063,0-23.691,10.626-23.691,23.688c0,13.063,10.628,23.691,23.691,23.691c13.061,0,23.687-10.628,23.687-23.691
	C392.091,287.736,388.509,284.154,384.091,284.154z M447.893,221.415c0.064,0.409,0.107,0.825,0.107,1.252v69.488
	c0,4.418-3.582,8-8,8h-24.256c-3.822,22.684-23.588,40.023-47.336,40.023c-23.754,0-43.523-17.339-47.346-40.023H127.373
	c-3.822,22.684-23.587,40.023-47.336,40.023c-25.891,0-47.05-20.597-47.982-46.264C18.169,290.204,0,279.814,0,258.14v-61.818
	c0-0.504,0.035-0.986,0.07-1.468C0.028,194.524,0,194.19,0,193.849v-62.027c0-13.234,10.766-24,24-24h202.75
	c24.2,0,35.063,10.472,46.644,29.795l25.376,42.546h12.896H408c22.056,0,40,17.943,40,40
	C448,220.59,447.957,221.006,447.893,221.415z M260.751,147.655H134.375c-8.83,0-14.119,3.117-17.686,10.424l-10.64,22.085H280.14
	L260.751,147.655z M16,179.783l16.537-0.001c0.016,0,0.031-0.002,0.047-0.002c0.016,0,0.031,0.002,0.047,0.002l25.776-0.002
	l16.188-32.125H16V179.783z M16,220.25h8.583v-24.467l-8.546,0.001c-0.02,0.125-0.037,0.302-0.037,0.538V220.25z M112.053,292.152
	c0-17.656-14.362-32.021-32.015-32.021c-17.659,0-32.026,14.365-32.026,32.021c0,17.66,14.367,32.026,32.026,32.026
	C97.691,324.178,112.053,309.812,112.053,292.152z M400.423,292.152c0-17.656-14.362-32.021-32.016-32.021
	c-17.659,0-32.025,14.365-32.025,32.021c0,17.66,14.366,32.026,32.025,32.026C386.061,324.178,400.423,309.812,400.423,292.152z
	 M432,236.25h-32.042c-4.418,0-8-3.582-8-8V212.5c0-6.307,2.449-12.049,6.441-16.337h-86.732H93.5c-4.419,0-8-3.582-8-8
	c0-0.051,0.007-0.1,0.008-0.15c-0.037-1.241,0.209-2.509,0.785-3.706l16-33.211c6.304-12.913,17.092-19.441,32.082-19.441h114.933
	c-5.713-5.598-12.141-7.833-22.558-7.833H24c-4.355,0-7.902,3.5-7.992,7.833h71.575c0.07,0,0.137,0.009,0.206,0.01
	c0.165,0.004,0.329,0.011,0.495,0.025c0.111,0.01,0.22,0.024,0.33,0.039c0.147,0.019,0.293,0.04,0.44,0.067
	c0.129,0.024,0.256,0.054,0.383,0.084c0.122,0.029,0.244,0.059,0.365,0.094c0.148,0.043,0.292,0.092,0.436,0.143
	c0.1,0.035,0.2,0.069,0.299,0.109c0.159,0.063,0.313,0.133,0.467,0.206c0.059,0.028,0.12,0.05,0.179,0.079
	c0.028,0.015,0.054,0.032,0.082,0.047c0.147,0.076,0.288,0.159,0.429,0.244c0.092,0.055,0.186,0.109,0.276,0.167
	c0.113,0.074,0.222,0.155,0.331,0.235c0.108,0.079,0.218,0.156,0.321,0.24c0.081,0.065,0.156,0.136,0.234,0.205
	c0.12,0.105,0.24,0.209,0.353,0.32c0.061,0.061,0.118,0.127,0.178,0.189c0.117,0.125,0.235,0.248,0.344,0.379
	c0.061,0.073,0.115,0.15,0.173,0.225c0.097,0.125,0.195,0.25,0.284,0.38c0.073,0.106,0.138,0.219,0.205,0.329
	c0.064,0.104,0.131,0.207,0.19,0.313c0.079,0.143,0.148,0.291,0.218,0.438c0.039,0.082,0.081,0.161,0.117,0.243
	c0.07,0.16,0.129,0.325,0.188,0.49c0.028,0.077,0.059,0.153,0.084,0.231c0.05,0.153,0.09,0.311,0.13,0.469
	c0.025,0.098,0.054,0.194,0.075,0.293c0.029,0.131,0.049,0.266,0.071,0.4c0.022,0.132,0.045,0.263,0.06,0.396
	c0.012,0.108,0.018,0.218,0.026,0.327c0.012,0.162,0.023,0.324,0.025,0.487c0,0.032,0.005,0.063,0.005,0.096
	c0,0.067-0.008,0.132-0.01,0.199c-0.004,0.168-0.011,0.336-0.025,0.504c-0.01,0.109-0.024,0.217-0.038,0.324
	c-0.019,0.148-0.04,0.295-0.068,0.443c-0.024,0.129-0.054,0.256-0.084,0.383c-0.029,0.122-0.058,0.242-0.093,0.363
	c-0.043,0.15-0.093,0.297-0.145,0.444c-0.034,0.097-0.068,0.193-0.106,0.29c-0.065,0.163-0.137,0.321-0.212,0.479
	c-0.027,0.057-0.047,0.115-0.076,0.171l-24.25,48.125c-0.01,0.021-0.024,0.038-0.035,0.059c-0.158,0.307-0.333,0.604-0.528,0.885
	c-0.038,0.056-0.081,0.107-0.12,0.161c-0.158,0.216-0.326,0.423-0.504,0.623c-0.067,0.074-0.132,0.149-0.201,0.221
	c-0.218,0.226-0.446,0.442-0.689,0.642c-0.05,0.041-0.104,0.076-0.155,0.116c-0.211,0.165-0.432,0.318-0.659,0.462
	c-0.075,0.047-0.151,0.094-0.227,0.138c-0.267,0.156-0.54,0.3-0.826,0.424c-0.012,0.005-0.024,0.012-0.036,0.018
	c-0.306,0.132-0.624,0.241-0.948,0.335c-0.066,0.019-0.133,0.034-0.199,0.051c-0.253,0.066-0.51,0.119-0.772,0.16
	c-0.089,0.014-0.177,0.03-0.266,0.041c-0.299,0.037-0.601,0.06-0.909,0.062c-0.025,0-0.05,0.005-0.076,0.005
	c-0.01,0-0.02-0.002-0.03-0.002l-22.714,0.002v24.468c0,8.823-7.178,16-16,16H16v21.89c0,11.971,10.708,17.385,18.187,19.709
	c6.102-19.515,24.348-33.718,45.851-33.718c23.75,0,43.517,17.34,47.337,40.024H321.06c3.821-22.684,23.591-40.024,47.347-40.024
	c23.75,0,43.517,17.34,47.337,40.024H432V236.25z M432.004,220.25c0-0.029-0.004-0.058-0.004-0.086
	c0-5.986-2.208-11.462-5.845-15.671c-0.052,0.001-0.103,0.008-0.155,0.008h-10.042c-4.411,0-8,3.589-8,8v7.75H432.004z"/>
<g>
</g>
<g>
</g>
<g>
</g>
<g>
</g>
<g>
</g>
<g>
</g>
<g>
</g>
<g>
</g>
<g>
</g>
<g>
</g>
<g>
</g>
<g>
</g>
<g>
</g>
<g>
</g>
<g>
</g>
</svg>
