<?xml version="1.0" encoding="utf-8"?>
<!-- Generator: Adobe Illustrator 24.0.1, SVG Export Plug-In . SVG Version: 6.00 Build 0)  -->
<svg version="1.1" id="Слой_1" xmlns="http://www.w3.org/2000/svg" xmlns:xlink="http://www.w3.org/1999/xlink" x="0px" y="0px"
	 viewBox="0 0 512 512" style="enable-background:new 0 0 512 512;" xml:space="preserve">
<g id="Outline">
	<path d="M472,370.5V296c0-22.1-17.9-40-40-40h-64v-64c0-4.4-3.6-8-8-8h-8v-16c0-8.8,7.2-16,16-16c4.4,0,8-3.6,8-8s-3.6-8-8-8
		c-17.7,0-32,14.3-32,32v16h-8c-4.4,0-8,3.6-8,8v64h-34.1l-35.1-112.3c13.1-1.5,22.6-13.3,21.1-26.5c-1.4-12.1-11.7-21.3-23.9-21.2
		H56c-13.3,0-24,10.7-24,24s10.7,24,24,24v141.1C41.8,292,28.9,301.5,18.1,313c-3.1,3.1-3.1,8.2,0.1,11.3s8.2,3.1,11.3-0.1
		c0.1-0.1,0.2-0.2,0.3-0.4c7.6-8.2,16.4-15.2,26.1-20.8v19.1C13,353.1,3.2,413,34.1,456s90.8,52.8,133.9,21.9
		c15.9-11.4,28-27.5,34.5-46h150.1c4.3,39.5,39.8,68.1,79.4,63.8s68.1-39.8,63.8-79.4C493.7,398.7,485.3,382.3,472,370.5z
		 M261.6,232H152v-88h82.1L261.6,232z M48,120c0-4.4,3.6-8,8-8h192c4.4,0,8,3.6,8,8s-3.6,8-8,8H56C51.6,128,48,124.4,48,120z
		 M136,144v130.3c-21.3-4.2-43.4-2.7-64,4.2V144H136z M184,408h7.6c-1.6,15.6-7.7,30.5-17.7,42.6l-5.3-5.3c-3.2-3.1-8.2-3-11.3,0.2
		c-3,3.1-3,8,0,11.1l5.3,5.3c-12.1,10-27,16.1-42.6,17.7V472c0-4.4-3.6-8-8-8s-8,3.6-8,8v7.6c-15.6-1.6-30.5-7.7-42.6-17.7l5.3-5.3
		c3.1-3.2,3-8.2-0.2-11.3c-3.1-3-8-3-11.1,0l-5.3,5.3c-10-12.1-16.1-27-17.7-42.6H40c4.4,0,8-3.6,8-8s-3.6-8-8-8h-7.6
		c1.6-15.6,7.7-30.5,17.7-42.6l5.3,5.3c3.1,3.2,8.1,3.3,11.3,0.2c3.2-3.1,3.3-8.1,0.2-11.3c-0.1-0.1-0.1-0.1-0.2-0.2l-5.3-5.3
		c12.1-10,27-16.1,42.6-17.7v7.6c0,4.4,3.6,8,8,8s8-3.6,8-8v-7.6c15.6,1.6,30.5,7.7,42.6,17.7l-5.3,5.3c-3.2,3.1-3.3,8.1-0.2,11.3
		c3.1,3.2,8.1,3.3,11.3,0.2c0.1-0.1,0.1-0.1,0.2-0.2l5.3-5.3c10,12.1,16.1,27,17.7,42.6H184c-4.4,0-8,3.6-8,8S179.6,408,184,408z
		 M222.7,416h-16.2c9-52.1-26-101.7-78.1-110.6c-19.1-3.3-38.9-0.7-56.5,7.4v-17.2c57.3-22.5,121.9,5.8,144.3,63
		C223.5,376.8,225.7,396.6,222.7,416z M272,416h-33c0.7-5.3,1-10.7,1-16c0-2.7-0.2-5.3-0.4-8H272V416z M272,376h-34.3
		c-1.6-8.2-3.9-16.3-7.1-24H272V376z M272,336h-49.3c-15.7-27.2-40.9-47.6-70.7-57.5V248h114.6l5.4,17.2V336z M336,200h16v56h-16
		V200z M288,416V272h144c10.1,0,19.1,6.4,22.5,16H440c-13.3,0-24,10.7-24,24s10.7,24,24,24h16v23.6c-35.5-17.8-78.6-3.4-96.4,32
		c-3.8,7.6-6.3,15.9-7.2,24.4H288z M456,304v16h-16c-4.4,0-8-3.6-8-8s3.6-8,8-8H456z M468.7,457.6c-3.4-2.8-8.3-2.3-11.1,1.1
		c-2.4,2.9-2.4,7.1,0,10c-7.5,5.7-16.4,9.3-25.7,10.7c-0.3-4.3-4-7.6-8.4-7.4c-4,0.3-7.1,3.4-7.4,7.4c-9.4-1.3-18.2-5-25.8-10.7
		c2.8-3.4,2.3-8.3-1.1-11.1c-2.9-2.4-7.1-2.4-10,0c-5.7-7.5-9.3-16.4-10.7-25.7c4.3-0.3,7.6-4,7.4-8.4c-0.3-4-3.4-7.1-7.4-7.4
		c1.3-9.4,5-18.2,10.7-25.8c3.4,2.8,8.3,2.3,11.1-1c2.4-2.9,2.4-7.2,0-10.1c7.5-5.7,16.4-9.3,25.7-10.7c0.3,4.3,4,7.6,8.4,7.4
		c4-0.3,7.1-3.4,7.4-7.4c9.4,1.3,18.2,5,25.8,10.7c-2.8,3.4-2.3,8.3,1.1,11.1c2.9,2.4,7.1,2.4,10,0c5.7,7.5,9.3,16.4,10.7,25.7
		c-4.3,0.3-7.6,4-7.4,8.4c0.3,4,3.4,7.1,7.4,7.4C478.1,441.2,474.4,450.1,468.7,457.6z"/>
	<path d="M424,392c-17.7,0-32,14.3-32,32s14.3,32,32,32s32-14.3,32-32S441.7,392,424,392z M424,440c-8.8,0-16-7.2-16-16
		s7.2-16,16-16s16,7.2,16,16S432.8,440,424,440z"/>
	<path d="M112,360c-22.1,0-40,17.9-40,40s17.9,40,40,40s40-17.9,40-40C152,377.9,134.1,360,112,360z M112,424c-13.3,0-24-10.7-24-24
		s10.7-24,24-24s24,10.7,24,24S125.3,424,112,424z"/>
	<path d="M384,336c4.4,0,8-3.6,8-8v-32c0-4.4-3.6-8-8-8s-8,3.6-8,8v32C376,332.4,379.6,336,384,336z"/>
	<path d="M352,288c-4.4,0-8,3.6-8,8v32c0,4.4,3.6,8,8,8s8-3.6,8-8v-32C360,291.6,356.4,288,352,288z"/>
	<path d="M320,288c-4.4,0-8,3.6-8,8v32c0,4.4,3.6,8,8,8s8-3.6,8-8v-32C328,291.6,324.4,288,320,288z"/>
</g>
</svg>
